<?xml version="1.0" encoding="UTF-8"?>
<svg version="1.1" xmlns="http://www.w3.org/2000/svg" width="372" height="373">
<path d="M0 0 C122.76 0 245.52 0 372 0 C372 123.09 372 246.18 372 373 C249.24 373 126.48 373 0 373 C0 249.91 0 126.82 0 0 Z " fill="#581CA3" transform="translate(0,0)"/>
<path d="M0 0 C2.64 0 5.28 0 8 0 C8 8.58 8 17.16 8 26 C10.97 26 13.94 26 17 26 C17 28.97 17 31.94 17 35 C19.97 35 22.94 35 26 35 C26 32.03 26 29.06 26 26 C28.97 26 31.94 26 35 26 C35 23.03 35 20.06 35 17 C37.64 17 40.28 17 43 17 C43 14.03 43 11.06 43 8 C40.36 8 37.72 8 35 8 C35 5.36 35 2.72 35 0 C49.19 0 63.38 0 78 0 C78 5.61 78 11.22 78 17 C75.36 17 72.72 17 70 17 C70 19.97 70 22.94 70 26 C67.03 26 64.06 26 61 26 C61 28.97 61 31.94 61 35 C69.58 35 78.16 35 87 35 C87 32.03 87 29.06 87 26 C89.97 26 92.94 26 96 26 C96 31.61 96 37.22 96 43 C98.64 43 101.28 43 104 43 C104 45.97 104 48.94 104 52 C106.97 52 109.94 52 113 52 C113 46.39 113 40.78 113 35 C110.03 35 107.06 35 104 35 C104 29.06 104 23.12 104 17 C98.39 17 92.78 17 87 17 C87 14.03 87 11.06 87 8 C95.58 8 104.16 8 113 8 C113 13.94 113 19.88 113 26 C115.97 26 118.94 26 122 26 C122 23.03 122 20.06 122 17 C124.97 17 127.94 17 131 17 C131 25.58 131 34.16 131 43 C128.03 43 125.06 43 122 43 C122 45.97 122 48.94 122 52 C124.97 52 127.94 52 131 52 C131 57.61 131 63.22 131 69 C133.64 69 136.28 69 139 69 C139 74.94 139 80.88 139 87 C141.97 87 144.94 87 148 87 C148 81.06 148 75.12 148 69 C150.97 69 153.94 69 157 69 C157 74.94 157 80.88 157 87 C159.64 87 162.28 87 165 87 C165 89.97 165 92.94 165 96 C167.97 96 170.94 96 174 96 C174 93.03 174 90.06 174 87 C176.97 87 179.94 87 183 87 C183 89.97 183 92.94 183 96 C185.97 96 188.94 96 192 96 C192 98.64 192 101.28 192 104 C194.64 104 197.28 104 200 104 C200 112.58 200 121.16 200 130 C197.36 130 194.72 130 192 130 C192 132.97 192 135.94 192 139 C194.64 139 197.28 139 200 139 C200 147.58 200 156.16 200 165 C197.36 165 194.72 165 192 165 C192 167.97 192 170.94 192 174 C194.64 174 197.28 174 200 174 C200 179.94 200 185.88 200 192 C197.36 192 194.72 192 192 192 C192 189.03 192 186.06 192 183 C186.06 183 180.12 183 174 183 C174 185.97 174 188.94 174 192 C176.97 192 179.94 192 183 192 C183 197.61 183 203.22 183 209 C188.61 209 194.22 209 200 209 C200 217.58 200 226.16 200 235 C197.36 235 194.72 235 192 235 C192 229.39 192 223.78 192 218 C186.06 218 180.12 218 174 218 C174 212.06 174 206.12 174 200 C168.39 200 162.78 200 157 200 C157 202.97 157 205.94 157 209 C159.64 209 162.28 209 165 209 C165 214.61 165 220.22 165 226 C170.94 226 176.88 226 183 226 C183 228.97 183 231.94 183 235 C174.42 235 165.84 235 157 235 C157 232.03 157 229.06 157 226 C154.03 226 151.06 226 148 226 C148 228.97 148 231.94 148 235 C142.39 235 136.78 235 131 235 C131 237.97 131 240.94 131 244 C145.19 244 159.38 244 174 244 C174 246.97 174 249.94 174 253 C171.03 253 168.06 253 165 253 C165 255.64 165 258.28 165 261 C173.91 261 182.82 261 192 261 C192 258.36 192 255.72 192 253 C189.03 253 186.06 253 183 253 C183 250.03 183 247.06 183 244 C188.61 244 194.22 244 200 244 C200 252.58 200 261.16 200 270 C194.39 270 188.78 270 183 270 C183 275.61 183 281.22 183 287 C188.61 287 194.22 287 200 287 C200 292.94 200 298.88 200 305 C197.36 305 194.72 305 192 305 C192 307.97 192 310.94 192 314 C194.64 314 197.28 314 200 314 C200 316.64 200 319.28 200 322 C191.42 322 182.84 322 174 322 C174 319.36 174 316.72 174 314 C168.39 314 162.78 314 157 314 C157 316.64 157 319.28 157 322 C154.03 322 151.06 322 148 322 C148 319.36 148 316.72 148 314 C142.39 314 136.78 314 131 314 C131 308.06 131 302.12 131 296 C128.03 296 125.06 296 122 296 C122 298.97 122 301.94 122 305 C116.06 305 110.12 305 104 305 C104 307.97 104 310.94 104 314 C101.36 314 98.72 314 96 314 C96 311.03 96 308.06 96 305 C93.03 305 90.06 305 87 305 C87 302.03 87 299.06 87 296 C78.42 296 69.84 296 61 296 C61 287.42 61 278.84 61 270 C58.03 270 55.06 270 52 270 C52 272.97 52 275.94 52 279 C49.03 279 46.06 279 43 279 C43 281.64 43 284.28 43 287 C40.36 287 37.72 287 35 287 C35 281.39 35 275.78 35 270 C32.03 270 29.06 270 26 270 C26 278.58 26 287.16 26 296 C23.03 296 20.06 296 17 296 C17 293.03 17 290.06 17 287 C14.03 287 11.06 287 8 287 C8 284.36 8 281.72 8 279 C5.36 279 2.72 279 0 279 C0 276.03 0 273.06 0 270 C-5.94 270 -11.88 270 -18 270 C-18 267.03 -18 264.06 -18 261 C-12.06 261 -6.12 261 0 261 C0 258.36 0 255.72 0 253 C2.64 253 5.28 253 8 253 C8 250.03 8 247.06 8 244 C10.97 244 13.94 244 17 244 C17 241.03 17 238.06 17 235 C8.42 235 -0.16 235 -9 235 C-9 237.97 -9 240.94 -9 244 C-11.97 244 -14.94 244 -18 244 C-18 235.42 -18 226.84 -18 218 C-26.58 218 -35.16 218 -44 218 C-44 215.03 -44 212.06 -44 209 C-38.06 209 -32.12 209 -26 209 C-26 203.39 -26 197.78 -26 192 C-17.42 192 -8.84 192 0 192 C0 189.03 0 186.06 0 183 C-5.94 183 -11.88 183 -18 183 C-18 177.06 -18 171.12 -18 165 C-15.03 165 -12.06 165 -9 165 C-9 162.36 -9 159.72 -9 157 C-6.03 157 -3.06 157 0 157 C0 151.06 0 145.12 0 139 C-2.97 139 -5.94 139 -9 139 C-9 136.03 -9 133.06 -9 130 C-11.97 130 -14.94 130 -18 130 C-18 135.94 -18 141.88 -18 148 C-23.61 148 -29.22 148 -35 148 C-35 150.97 -35 153.94 -35 157 C-37.97 157 -40.94 157 -44 157 C-44 159.64 -44 162.28 -44 165 C-38.06 165 -32.12 165 -26 165 C-26 167.97 -26 170.94 -26 174 C-28.97 174 -31.94 174 -35 174 C-35 179.94 -35 185.88 -35 192 C-37.97 192 -40.94 192 -44 192 C-44 186.06 -44 180.12 -44 174 C-46.97 174 -49.94 174 -53 174 C-53 171.03 -53 168.06 -53 165 C-58.61 165 -64.22 165 -70 165 C-70 167.97 -70 170.94 -70 174 C-75.61 174 -81.22 174 -87 174 C-87 176.97 -87 179.94 -87 183 C-89.97 183 -92.94 183 -96 183 C-96 180.03 -96 177.06 -96 174 C-98.97 174 -101.94 174 -105 174 C-105 176.97 -105 179.94 -105 183 C-107.97 183 -110.94 183 -114 183 C-114 174.42 -114 165.84 -114 157 C-111.03 157 -108.06 157 -105 157 C-105 154.03 -105 151.06 -105 148 C-102.03 148 -99.06 148 -96 148 C-96 142.06 -96 136.12 -96 130 C-98.97 130 -101.94 130 -105 130 C-105 127.36 -105 124.72 -105 122 C-102.03 122 -99.06 122 -96 122 C-96 119.03 -96 116.06 -96 113 C-98.97 113 -101.94 113 -105 113 C-105 107.39 -105 101.78 -105 96 C-107.97 96 -110.94 96 -114 96 C-114 90.06 -114 84.12 -114 78 C-116.64 78 -119.28 78 -122 78 C-122 75.03 -122 72.06 -122 69 C-107.81 69 -93.62 69 -79 69 C-79 71.97 -79 74.94 -79 78 C-76.03 78 -73.06 78 -70 78 C-70 75.03 -70 72.06 -70 69 C-61.42 69 -52.84 69 -44 69 C-44 66.36 -44 63.72 -44 61 C-46.97 61 -49.94 61 -53 61 C-53 55.06 -53 49.12 -53 43 C-50.03 43 -47.06 43 -44 43 C-44 40.36 -44 37.72 -44 35 C-46.97 35 -49.94 35 -53 35 C-53 32.03 -53 29.06 -53 26 C-44.09 26 -35.18 26 -26 26 C-26 28.97 -26 31.94 -26 35 C-28.97 35 -31.94 35 -35 35 C-35 40.61 -35 46.22 -35 52 C-32.03 52 -29.06 52 -26 52 C-26 49.03 -26 46.06 -26 43 C-17.42 43 -8.84 43 0 43 C0 34.42 0 25.84 0 17 C-2.97 17 -5.94 17 -9 17 C-9 14.03 -9 11.06 -9 8 C-6.03 8 -3.06 8 0 8 C0 5.36 0 2.72 0 0 Z " fill="#02E1E4" transform="translate(149,24)"/>
<path d="M0 0 C5.61 0 11.22 0 17 0 C17 2.97 17 5.94 17 9 C19.97 9 22.94 9 26 9 C26 11.64 26 14.28 26 17 C28.97 17 31.94 17 35 17 C35 28.55 35 40.1 35 52 C32.03 52 29.06 52 26 52 C26 54.97 26 57.94 26 61 C34.58 61 43.16 61 52 61 C52 58.03 52 55.06 52 52 C60.58 52 69.16 52 78 52 C78 54.97 78 57.94 78 61 C80.97 61 83.94 61 87 61 C87 63.97 87 66.94 87 70 C84.03 70 81.06 70 78 70 C78 84.19 78 98.38 78 113 C72.39 113 66.78 113 61 113 C61 115.97 61 118.94 61 122 C66.61 122 72.22 122 78 122 C78 124.97 78 127.94 78 131 C80.97 131 83.94 131 87 131 C87 133.97 87 136.94 87 140 C89.97 140 92.94 140 96 140 C96 151.22 96 162.44 96 174 C90.06 174 84.12 174 78 174 C78 176.97 78 179.94 78 183 C63.81 183 49.62 183 35 183 C35 174.42 35 165.84 35 157 C32.03 157 29.06 157 26 157 C26 159.97 26 162.94 26 166 C23.03 166 20.06 166 17 166 C17 168.64 17 171.28 17 174 C14.36 174 11.72 174 9 174 C9 168.39 9 162.78 9 157 C6.03 157 3.06 157 0 157 C0 165.58 0 174.16 0 183 C-2.97 183 -5.94 183 -9 183 C-9 180.03 -9 177.06 -9 174 C-11.97 174 -14.94 174 -18 174 C-18 171.36 -18 168.72 -18 166 C-20.64 166 -23.28 166 -26 166 C-26 163.03 -26 160.06 -26 157 C-31.94 157 -37.88 157 -44 157 C-44 154.03 -44 151.06 -44 148 C-38.06 148 -32.12 148 -26 148 C-26 145.36 -26 142.72 -26 140 C-23.36 140 -20.72 140 -18 140 C-18 137.03 -18 134.06 -18 131 C-12.06 131 -6.12 131 0 131 C0 119.45 0 107.9 0 96 C-5.94 96 -11.88 96 -18 96 C-18 98.97 -18 101.94 -18 105 C-15.03 105 -12.06 105 -9 105 C-9 107.64 -9 110.28 -9 113 C-17.58 113 -26.16 113 -35 113 C-35 107.39 -35 101.78 -35 96 C-32.03 96 -29.06 96 -26 96 C-26 93.03 -26 90.06 -26 87 C-23.36 87 -20.72 87 -18 87 C-18 78.42 -18 69.84 -18 61 C-15.03 61 -12.06 61 -9 61 C-9 58.03 -9 55.06 -9 52 C-6.03 52 -3.06 52 0 52 C0 40.45 0 28.9 0 17 C2.97 17 5.94 17 9 17 C9 14.36 9 11.72 9 9 C6.03 9 3.06 9 0 9 C0 6.03 0 3.06 0 0 Z " fill="#02E1E4" transform="translate(175,137)"/>
<path d="M0 0 C14.19 0 28.38 0 43 0 C43 2.97 43 5.94 43 9 C45.97 9 48.94 9 52 9 C52 11.97 52 14.94 52 18 C49.03 18 46.06 18 43 18 C43 20.97 43 23.94 43 27 C37.39 27 31.78 27 26 27 C26 29.64 26 32.28 26 35 C31.61 35 37.22 35 43 35 C43 40.94 43 46.88 43 53 C40.36 53 37.72 53 35 53 C35 55.64 35 58.28 35 61 C40.61 61 46.22 61 52 61 C52 63.97 52 66.94 52 70 C54.97 70 57.94 70 61 70 C61 72.97 61 75.94 61 79 C63.64 79 66.28 79 69 79 C69 70.42 69 61.84 69 53 C71.97 53 74.94 53 78 53 C78 55.64 78 58.28 78 61 C83.94 61 89.88 61 96 61 C96 58.36 96 55.72 96 53 C104.58 53 113.16 53 122 53 C122 55.64 122 58.28 122 61 C124.64 61 127.28 61 130 61 C130 52.42 130 43.84 130 35 C132.97 35 135.94 35 139 35 C139 37.97 139 40.94 139 44 C141.97 44 144.94 44 148 44 C148 46.97 148 49.94 148 53 C150.97 53 153.94 53 157 53 C157 55.64 157 58.28 157 61 C154.03 61 151.06 61 148 61 C148 72.55 148 84.1 148 96 C145.03 96 142.06 96 139 96 C139 98.97 139 101.94 139 105 C136.03 105 133.06 105 130 105 C130 113.58 130 122.16 130 131 C127.36 131 124.72 131 122 131 C122 133.97 122 136.94 122 140 C119.03 140 116.06 140 113 140 C113 145.61 113 151.22 113 157 C121.58 157 130.16 157 139 157 C139 154.36 139 151.72 139 149 C136.03 149 133.06 149 130 149 C130 146.03 130 143.06 130 140 C135.94 140 141.88 140 148 140 C148 151.55 148 163.1 148 175 C145.03 175 142.06 175 139 175 C139 172.03 139 169.06 139 166 C130.42 166 121.84 166 113 166 C113 168.97 113 171.94 113 175 C110.03 175 107.06 175 104 175 C104 166.42 104 157.84 104 149 C95.42 149 86.84 149 78 149 C78 146.03 78 143.06 78 140 C83.94 140 89.88 140 96 140 C96 134.39 96 128.78 96 123 C104.58 123 113.16 123 122 123 C122 120.03 122 117.06 122 114 C116.06 114 110.12 114 104 114 C104 108.06 104 102.12 104 96 C106.97 96 109.94 96 113 96 C113 93.36 113 90.72 113 88 C115.97 88 118.94 88 122 88 C122 82.06 122 76.12 122 70 C119.03 70 116.06 70 113 70 C113 67.03 113 64.06 113 61 C110.03 61 107.06 61 104 61 C104 66.94 104 72.88 104 79 C98.39 79 92.78 79 87 79 C87 81.97 87 84.94 87 88 C84.03 88 81.06 88 78 88 C78 90.64 78 93.28 78 96 C83.94 96 89.88 96 96 96 C96 98.97 96 101.94 96 105 C93.03 105 90.06 105 87 105 C87 110.94 87 116.88 87 123 C84.03 123 81.06 123 78 123 C78 117.06 78 111.12 78 105 C75.03 105 72.06 105 69 105 C69 102.03 69 99.06 69 96 C63.39 96 57.78 96 52 96 C52 98.97 52 101.94 52 105 C46.39 105 40.78 105 35 105 C35 107.97 35 110.94 35 114 C32.03 114 29.06 114 26 114 C26 111.03 26 108.06 26 105 C23.03 105 20.06 105 17 105 C17 107.97 17 110.94 17 114 C14.03 114 11.06 114 8 114 C8 105.42 8 96.84 8 88 C10.97 88 13.94 88 17 88 C17 85.03 17 82.06 17 79 C19.97 79 22.94 79 26 79 C26 73.06 26 67.12 26 61 C23.03 61 20.06 61 17 61 C17 58.36 17 55.72 17 53 C19.97 53 22.94 53 26 53 C26 50.03 26 47.06 26 44 C23.03 44 20.06 44 17 44 C17 38.39 17 32.78 17 27 C14.03 27 11.06 27 8 27 C8 21.06 8 15.12 8 9 C5.36 9 2.72 9 0 9 C0 6.03 0 3.06 0 0 Z " fill="#02E1E4" transform="translate(27,93)"/>
<path d="M0 0 C2.97 0 5.94 0 9 0 C9 8.58 9 17.16 9 26 C11.97 26 14.94 26 18 26 C18 28.97 18 31.94 18 35 C23.61 35 29.22 35 35 35 C35 32.03 35 29.06 35 26 C37.97 26 40.94 26 44 26 C44 28.97 44 31.94 44 35 C46.97 35 49.94 35 53 35 C53 32.03 53 29.06 53 26 C55.64 26 58.28 26 61 26 C61 31.61 61 37.22 61 43 C66.94 43 72.88 43 79 43 C79 45.97 79 48.94 79 52 C70.42 52 61.84 52 53 52 C53 49.03 53 46.06 53 43 C50.03 43 47.06 43 44 43 C44 45.97 44 48.94 44 52 C38.39 52 32.78 52 27 52 C27 54.97 27 57.94 27 61 C41.19 61 55.38 61 70 61 C70 63.97 70 66.94 70 70 C67.03 70 64.06 70 61 70 C61 72.64 61 75.28 61 78 C69.91 78 78.82 78 88 78 C88 75.36 88 72.72 88 70 C85.03 70 82.06 70 79 70 C79 67.03 79 64.06 79 61 C84.61 61 90.22 61 96 61 C96 69.58 96 78.16 96 87 C90.39 87 84.78 87 79 87 C79 92.61 79 98.22 79 104 C84.61 104 90.22 104 96 104 C96 109.94 96 115.88 96 122 C93.36 122 90.72 122 88 122 C88 124.97 88 127.94 88 131 C90.64 131 93.28 131 96 131 C96 133.64 96 136.28 96 139 C87.42 139 78.84 139 70 139 C70 136.36 70 133.72 70 131 C64.39 131 58.78 131 53 131 C53 133.64 53 136.28 53 139 C50.03 139 47.06 139 44 139 C44 136.36 44 133.72 44 131 C38.39 131 32.78 131 27 131 C27 125.06 27 119.12 27 113 C24.03 113 21.06 113 18 113 C18 115.97 18 118.94 18 122 C12.06 122 6.12 122 0 122 C0 124.97 0 127.94 0 131 C-2.64 131 -5.28 131 -8 131 C-8 128.03 -8 125.06 -8 122 C-10.97 122 -13.94 122 -17 122 C-17 119.03 -17 116.06 -17 113 C-11.39 113 -5.78 113 0 113 C0 110.03 0 107.06 0 104 C5.94 104 11.88 104 18 104 C18 92.78 18 81.56 18 70 C15.03 70 12.06 70 9 70 C9 67.03 9 64.06 9 61 C6.03 61 3.06 61 0 61 C0 58.03 0 55.06 0 52 C-5.61 52 -11.22 52 -17 52 C-17 49.03 -17 46.06 -17 43 C-11.39 43 -5.78 43 0 43 C0 28.81 0 14.62 0 0 Z " fill="#02E1E4" transform="translate(253,207)"/>
<path d="M0 0 C2.97 0 5.94 0 9 0 C9 5.61 9 11.22 9 17 C6.03 17 3.06 17 0 17 C0 19.97 0 22.94 0 26 C2.97 26 5.94 26 9 26 C9 28.97 9 31.94 9 35 C6.03 35 3.06 35 0 35 C0 37.97 0 40.94 0 44 C2.97 44 5.94 44 9 44 C9 46.64 9 49.28 9 52 C11.64 52 14.28 52 17 52 C17 60.58 17 69.16 17 78 C14.36 78 11.72 78 9 78 C9 75.36 9 72.72 9 70 C0.42 70 -8.16 70 -17 70 C-17 72.64 -17 75.28 -17 78 C-22.94 78 -28.88 78 -35 78 C-35 75.36 -35 72.72 -35 70 C-37.97 70 -40.94 70 -44 70 C-44 78.58 -44 87.16 -44 96 C-46.64 96 -49.28 96 -52 96 C-52 93.03 -52 90.06 -52 87 C-54.97 87 -57.94 87 -61 87 C-61 84.03 -61 81.06 -61 78 C-66.61 78 -72.22 78 -78 78 C-78 75.36 -78 72.72 -78 70 C-75.36 70 -72.72 70 -70 70 C-70 64.06 -70 58.12 -70 52 C-75.61 52 -81.22 52 -87 52 C-87 49.36 -87 46.72 -87 44 C-81.39 44 -75.78 44 -70 44 C-70 41.03 -70 38.06 -70 35 C-67.03 35 -64.06 35 -61 35 C-61 32.03 -61 29.06 -61 26 C-49.45 26 -37.9 26 -26 26 C-26 28.97 -26 31.94 -26 35 C-23.03 35 -20.06 35 -17 35 C-17 32.03 -17 29.06 -17 26 C-14.36 26 -11.72 26 -9 26 C-9 20.39 -9 14.78 -9 9 C-6.03 9 -3.06 9 0 9 C0 6.03 0 3.06 0 0 Z " fill="#591CA3" transform="translate(140,76)"/>
<path d="M0 0 C5.61 0 11.22 0 17 0 C17 2.97 17 5.94 17 9 C25.58 9 34.16 9 43 9 C43 6.03 43 3.06 43 0 C51.58 0 60.16 0 69 0 C69 2.97 69 5.94 69 9 C71.97 9 74.94 9 78 9 C78 11.97 78 14.94 78 18 C75.03 18 72.06 18 69 18 C69 32.19 69 46.38 69 61 C63.39 61 57.78 61 52 61 C52 63.97 52 66.94 52 70 C57.61 70 63.22 70 69 70 C69 72.97 69 75.94 69 79 C71.97 79 74.94 79 78 79 C78 81.97 78 84.94 78 88 C80.97 88 83.94 88 87 88 C87 99.22 87 110.44 87 122 C81.06 122 75.12 122 69 122 C69 124.97 69 127.94 69 131 C63.39 131 57.78 131 52 131 C52 128.03 52 125.06 52 122 C54.97 122 57.94 122 61 122 C61 116.39 61 110.78 61 105 C55.06 105 49.12 105 43 105 C43 102.03 43 99.06 43 96 C48.94 96 54.88 96 61 96 C61 93.36 61 90.72 61 88 C52.42 88 43.84 88 35 88 C35 82.06 35 76.12 35 70 C37.64 70 40.28 70 43 70 C43 64.39 43 58.78 43 53 C40.36 53 37.72 53 35 53 C35 50.03 35 47.06 35 44 C40.61 44 46.22 44 52 44 C52 41.03 52 38.06 52 35 C54.97 35 57.94 35 61 35 C61 32.36 61 29.72 61 27 C58.03 27 55.06 27 52 27 C52 24.03 52 21.06 52 18 C40.45 18 28.9 18 17 18 C17 23.61 17 29.22 17 35 C14.03 35 11.06 35 8 35 C8 26.42 8 17.84 8 9 C5.36 9 2.72 9 0 9 C0 6.03 0 3.06 0 0 Z " fill="#591CA3" transform="translate(184,189)"/>
<path d="M0 0 C2.64 0 5.28 0 8 0 C8 8.58 8 17.16 8 26 C10.97 26 13.94 26 17 26 C17 28.97 17 31.94 17 35 C19.97 35 22.94 35 26 35 C26 49.19 26 63.38 26 78 C23.03 78 20.06 78 17 78 C17 80.97 17 83.94 17 87 C14.03 87 11.06 87 8 87 C8 92.61 8 98.22 8 104 C5.36 104 2.72 104 0 104 C0 101.36 0 98.72 0 96 C-2.97 96 -5.94 96 -9 96 C-9 93.03 -9 90.06 -9 87 C-6.03 87 -3.06 87 0 87 C0 84.03 0 81.06 0 78 C-2.97 78 -5.94 78 -9 78 C-9 75.03 -9 72.06 -9 69 C-6.03 69 -3.06 69 0 69 C0 63.39 0 57.78 0 52 C-2.97 52 -5.94 52 -9 52 C-9 54.97 -9 57.94 -9 61 C-11.97 61 -14.94 61 -18 61 C-18 66.61 -18 72.22 -18 78 C-20.64 78 -23.28 78 -26 78 C-26 80.97 -26 83.94 -26 87 C-28.97 87 -31.94 87 -35 87 C-35 84.03 -35 81.06 -35 78 C-46.55 78 -58.1 78 -70 78 C-70 75.03 -70 72.06 -70 69 C-61.42 69 -52.84 69 -44 69 C-44 66.36 -44 63.72 -44 61 C-46.97 61 -49.94 61 -53 61 C-53 55.06 -53 49.12 -53 43 C-50.03 43 -47.06 43 -44 43 C-44 40.36 -44 37.72 -44 35 C-46.97 35 -49.94 35 -53 35 C-53 32.03 -53 29.06 -53 26 C-44.09 26 -35.18 26 -26 26 C-26 28.97 -26 31.94 -26 35 C-28.97 35 -31.94 35 -35 35 C-35 40.61 -35 46.22 -35 52 C-32.03 52 -29.06 52 -26 52 C-26 49.03 -26 46.06 -26 43 C-17.42 43 -8.84 43 0 43 C0 34.42 0 25.84 0 17 C-2.97 17 -5.94 17 -9 17 C-9 14.03 -9 11.06 -9 8 C-6.03 8 -3.06 8 0 8 C0 5.36 0 2.72 0 0 Z " fill="#02E1E4" transform="translate(149,24)"/>
<path d="M0 0 C11.55 0 23.1 0 35 0 C35 2.97 35 5.94 35 9 C37.97 9 40.94 9 44 9 C44 11.64 44 14.28 44 17 C41.03 17 38.06 17 35 17 C35 19.97 35 22.94 35 26 C29.39 26 23.78 26 18 26 C18 28.97 18 31.94 18 35 C20.64 35 23.28 35 26 35 C26 40.61 26 46.22 26 52 C23.36 52 20.72 52 18 52 C18 57.94 18 63.88 18 70 C26.58 70 35.16 70 44 70 C44 72.64 44 75.28 44 78 C38.06 78 32.12 78 26 78 C26 80.97 26 83.94 26 87 C31.94 87 37.88 87 44 87 C44 92.61 44 98.22 44 104 C41.03 104 38.06 104 35 104 C35 106.97 35 109.94 35 113 C26.42 113 17.84 113 9 113 C9 104.42 9 95.84 9 87 C6.03 87 3.06 87 0 87 C0 89.97 0 92.94 0 96 C-2.97 96 -5.94 96 -9 96 C-9 98.64 -9 101.28 -9 104 C-11.64 104 -14.28 104 -17 104 C-17 98.39 -17 92.78 -17 87 C-14.36 87 -11.72 87 -9 87 C-9 84.03 -9 81.06 -9 78 C-3.06 78 2.88 78 9 78 C9 75.36 9 72.72 9 70 C6.03 70 3.06 70 0 70 C0 67.03 0 64.06 0 61 C-5.61 61 -11.22 61 -17 61 C-17 58.03 -17 55.06 -17 52 C-14.36 52 -11.72 52 -9 52 C-9 49.03 -9 46.06 -9 43 C-3.06 43 2.88 43 9 43 C9 37.39 9 31.78 9 26 C3.06 26 -2.88 26 -9 26 C-9 28.97 -9 31.94 -9 35 C-11.64 35 -14.28 35 -17 35 C-17 29.06 -17 23.12 -17 17 C-11.39 17 -5.78 17 0 17 C0 11.39 0 5.78 0 0 Z " fill="#02E1E4" transform="translate(201,207)"/>
<path d="M0 0 C20.13 0 40.26 0 61 0 C61 20.13 61 40.26 61 61 C40.87 61 20.74 61 0 61 C0 40.87 0 20.74 0 0 Z " fill="#5425A6" transform="translate(27,285)"/>
<path d="M0 0 C20.13 0 40.26 0 61 0 C61 20.13 61 40.26 61 61 C40.87 61 20.74 61 0 61 C0 40.87 0 20.74 0 0 Z " fill="#5523A5" transform="translate(288,24)"/>
<path d="M0 0 C20.13 0 40.26 0 61 0 C61 20.13 61 40.26 61 61 C40.87 61 20.74 61 0 61 C0 40.87 0 20.74 0 0 Z " fill="#5425A6" transform="translate(27,24)"/>
<path d="M0 0 C5.94 0 11.88 0 18 0 C18 2.97 18 5.94 18 9 C20.64 9 23.28 9 26 9 C26 11.64 26 14.28 26 17 C37.55 17 49.1 17 61 17 C61 25.91 61 34.82 61 44 C63.97 44 66.94 44 70 44 C70 49.61 70 55.22 70 61 C75.61 61 81.22 61 87 61 C87 69.58 87 78.16 87 87 C84.36 87 81.72 87 79 87 C79 81.39 79 75.78 79 70 C73.06 70 67.12 70 61 70 C61 64.06 61 58.12 61 52 C55.39 52 49.78 52 44 52 C44 57.94 44 63.88 44 70 C41.03 70 38.06 70 35 70 C35 67.03 35 64.06 35 61 C32.03 61 29.06 61 26 61 C26 63.97 26 66.94 26 70 C20.39 70 14.78 70 9 70 C9 67.03 9 64.06 9 61 C6.03 61 3.06 61 0 61 C0 52.42 0 43.84 0 35 C2.97 35 5.94 35 9 35 C9 37.97 9 40.94 9 44 C11.97 44 14.94 44 18 44 C18 41.03 18 38.06 18 35 C20.64 35 23.28 35 26 35 C26 32.03 26 29.06 26 26 C23.36 26 20.72 26 18 26 C18 23.03 18 20.06 18 17 C15.03 17 12.06 17 9 17 C9 14.36 9 11.72 9 9 C6.03 9 3.06 9 0 9 C0 6.03 0 3.06 0 0 Z " fill="#02E1E4" transform="translate(262,172)"/>
<path d="M0 0 C2.97 0 5.94 0 9 0 C9 2.97 9 5.94 9 9 C11.64 9 14.28 9 17 9 C17 6.03 17 3.06 17 0 C22.94 0 28.88 0 35 0 C35 5.61 35 11.22 35 17 C29.06 17 23.12 17 17 17 C17 19.97 17 22.94 17 26 C14.36 26 11.72 26 9 26 C9 28.97 9 31.94 9 35 C14.61 35 20.22 35 26 35 C26 37.97 26 40.94 26 44 C28.97 44 31.94 44 35 44 C35 46.64 35 49.28 35 52 C29.06 52 23.12 52 17 52 C17 54.97 17 57.94 17 61 C11.39 61 5.78 61 0 61 C0 69.58 0 78.16 0 87 C-2.97 87 -5.94 87 -9 87 C-9 84.03 -9 81.06 -9 78 C-11.97 78 -14.94 78 -18 78 C-18 75.36 -18 72.72 -18 70 C-20.64 70 -23.28 70 -26 70 C-26 67.03 -26 64.06 -26 61 C-31.94 61 -37.88 61 -44 61 C-44 58.03 -44 55.06 -44 52 C-38.06 52 -32.12 52 -26 52 C-26 49.36 -26 46.72 -26 44 C-23.36 44 -20.72 44 -18 44 C-18 41.03 -18 38.06 -18 35 C-12.06 35 -6.12 35 0 35 C0 23.45 0 11.9 0 0 Z " fill="#02E1E4" transform="translate(175,233)"/>
<path d="M0 0 C2.64 0 5.28 0 8 0 C8 5.94 8 11.88 8 18 C10.97 18 13.94 18 17 18 C17 32.19 17 46.38 17 61 C19.97 61 22.94 61 26 61 C26 63.97 26 66.94 26 70 C20.06 70 14.12 70 8 70 C8 64.39 8 58.78 8 53 C2.39 53 -3.22 53 -9 53 C-9 50.03 -9 47.06 -9 44 C-11.97 44 -14.94 44 -18 44 C-18 41.03 -18 38.06 -18 35 C-20.64 35 -23.28 35 -26 35 C-26 32.03 -26 29.06 -26 26 C-28.97 26 -31.94 26 -35 26 C-35 28.97 -35 31.94 -35 35 C-37.97 35 -40.94 35 -44 35 C-44 32.03 -44 29.06 -44 26 C-46.97 26 -49.94 26 -53 26 C-53 34.91 -53 43.82 -53 53 C-55.64 53 -58.28 53 -61 53 C-61 41.45 -61 29.9 -61 18 C-58.36 18 -55.72 18 -53 18 C-53 15.03 -53 12.06 -53 9 C-50.03 9 -47.06 9 -44 9 C-44 11.97 -44 14.94 -44 18 C-35.42 18 -26.84 18 -18 18 C-18 15.03 -18 12.06 -18 9 C-12.06 9 -6.12 9 0 9 C0 6.03 0 3.06 0 0 Z " fill="#02E1E4" transform="translate(88,224)"/>
<path d="M0 0 C14.19 0 28.38 0 43 0 C43 2.97 43 5.94 43 9 C45.97 9 48.94 9 52 9 C52 11.97 52 14.94 52 18 C49.03 18 46.06 18 43 18 C43 20.97 43 23.94 43 27 C37.39 27 31.78 27 26 27 C26 29.64 26 32.28 26 35 C31.61 35 37.22 35 43 35 C43 40.94 43 46.88 43 53 C40.36 53 37.72 53 35 53 C35 55.64 35 58.28 35 61 C40.61 61 46.22 61 52 61 C52 63.97 52 66.94 52 70 C54.97 70 57.94 70 61 70 C61 72.97 61 75.94 61 79 C49.45 79 37.9 79 26 79 C26 73.06 26 67.12 26 61 C23.03 61 20.06 61 17 61 C17 58.36 17 55.72 17 53 C19.97 53 22.94 53 26 53 C26 50.03 26 47.06 26 44 C23.03 44 20.06 44 17 44 C17 38.39 17 32.78 17 27 C14.03 27 11.06 27 8 27 C8 21.06 8 15.12 8 9 C5.36 9 2.72 9 0 9 C0 6.03 0 3.06 0 0 Z " fill="#02E1E4" transform="translate(27,93)"/>
<path d="M0 0 C17.16 0 34.32 0 52 0 C52 2.97 52 5.94 52 9 C54.97 9 57.94 9 61 9 C61 11.64 61 14.28 61 17 C66.94 17 72.88 17 79 17 C79 19.97 79 22.94 79 26 C76.03 26 73.06 26 70 26 C70 31.94 70 37.88 70 44 C67.03 44 64.06 44 61 44 C61 38.06 61 32.12 61 26 C58.03 26 55.06 26 52 26 C52 23.03 52 20.06 52 17 C46.39 17 40.78 17 35 17 C35 19.97 35 22.94 35 26 C29.39 26 23.78 26 18 26 C18 28.97 18 31.94 18 35 C15.03 35 12.06 35 9 35 C9 32.03 9 29.06 9 26 C6.03 26 3.06 26 0 26 C0 28.97 0 31.94 0 35 C-2.97 35 -5.94 35 -9 35 C-9 26.42 -9 17.84 -9 9 C-6.03 9 -3.06 9 0 9 C0 6.03 0 3.06 0 0 Z " fill="#02E1E4" transform="translate(44,172)"/>
<path d="M0 0 C2.97 0 5.94 0 9 0 C9 8.58 9 17.16 9 26 C11.97 26 14.94 26 18 26 C18 28.97 18 31.94 18 35 C23.61 35 29.22 35 35 35 C35 32.03 35 29.06 35 26 C37.97 26 40.94 26 44 26 C44 28.97 44 31.94 44 35 C46.97 35 49.94 35 53 35 C53 32.03 53 29.06 53 26 C55.64 26 58.28 26 61 26 C61 31.61 61 37.22 61 43 C66.94 43 72.88 43 79 43 C79 45.97 79 48.94 79 52 C70.42 52 61.84 52 53 52 C53 49.03 53 46.06 53 43 C50.03 43 47.06 43 44 43 C44 45.97 44 48.94 44 52 C35.42 52 26.84 52 18 52 C18 54.97 18 57.94 18 61 C12.06 61 6.12 61 0 61 C0 58.03 0 55.06 0 52 C-5.61 52 -11.22 52 -17 52 C-17 49.03 -17 46.06 -17 43 C-11.39 43 -5.78 43 0 43 C0 28.81 0 14.62 0 0 Z " fill="#02E1E4" transform="translate(253,207)"/>
<path d="M0 0 C2.97 0 5.94 0 9 0 C9 2.64 9 5.28 9 8 C14.61 8 20.22 8 26 8 C26 13.94 26 19.88 26 26 C23.03 26 20.06 26 17 26 C17 23.03 17 20.06 17 17 C14.36 17 11.72 17 9 17 C9 22.61 9 28.22 9 34 C17.58 34 26.16 34 35 34 C35 39.94 35 45.88 35 52 C32.03 52 29.06 52 26 52 C26 49.03 26 46.06 26 43 C23.03 43 20.06 43 17 43 C17 51.58 17 60.16 17 69 C11.39 69 5.78 69 0 69 C0 71.97 0 74.94 0 78 C-2.97 78 -5.94 78 -9 78 C-9 75.03 -9 72.06 -9 69 C-11.97 69 -14.94 69 -18 69 C-18 63.39 -18 57.78 -18 52 C-15.03 52 -12.06 52 -9 52 C-9 49.03 -9 46.06 -9 43 C-6.03 43 -3.06 43 0 43 C0 28.81 0 14.62 0 0 Z " fill="#591CA3" transform="translate(175,59)"/>
<path d="M0 0 C2.64 0 5.28 0 8 0 C8 2.97 8 5.94 8 9 C10.97 9 13.94 9 17 9 C17 6.03 17 3.06 17 0 C22.61 0 28.22 0 34 0 C34 2.97 34 5.94 34 9 C36.97 9 39.94 9 43 9 C43 11.97 43 14.94 43 18 C45.97 18 48.94 18 52 18 C52 29.22 52 40.44 52 52 C46.06 52 40.12 52 34 52 C34 54.97 34 57.94 34 61 C28.39 61 22.78 61 17 61 C17 58.03 17 55.06 17 52 C19.97 52 22.94 52 26 52 C26 46.39 26 40.78 26 35 C20.06 35 14.12 35 8 35 C8 32.03 8 29.06 8 26 C13.94 26 19.88 26 26 26 C26 23.36 26 20.72 26 18 C17.42 18 8.84 18 0 18 C0 12.06 0 6.12 0 0 Z " fill="#591CA3" transform="translate(219,259)"/>
<path d="M0 0 C20.13 0 40.26 0 61 0 C61 20.13 61 40.26 61 61 C40.87 61 20.74 61 0 61 C0 40.87 0 20.74 0 0 Z M8 9 C8 23.52 8 38.04 8 53 C22.52 53 37.04 53 52 53 C52 38.48 52 23.96 52 9 C37.48 9 22.96 9 8 9 Z " fill="#04DBE2" transform="translate(27,285)"/>
<path d="M0 0 C20.13 0 40.26 0 61 0 C61 20.13 61 40.26 61 61 C40.87 61 20.74 61 0 61 C0 40.87 0 20.74 0 0 Z M9 8 C9 22.52 9 37.04 9 52 C23.52 52 38.04 52 53 52 C53 37.48 53 22.96 53 8 C38.48 8 23.96 8 9 8 Z " fill="#04DBE2" transform="translate(288,24)"/>
<path d="M0 0 C20.13 0 40.26 0 61 0 C61 20.13 61 40.26 61 61 C40.87 61 20.74 61 0 61 C0 40.87 0 20.74 0 0 Z M8 8 C8 22.52 8 37.04 8 52 C22.52 52 37.04 52 52 52 C52 37.48 52 22.96 52 8 C37.48 8 22.96 8 8 8 Z " fill="#04DBE2" transform="translate(27,24)"/>
<path d="M0 0 C2.64 0 5.28 0 8 0 C8 5.61 8 11.22 8 17 C5.36 17 2.72 17 0 17 C0 19.97 0 22.94 0 26 C-2.97 26 -5.94 26 -9 26 C-9 31.61 -9 37.22 -9 43 C-0.42 43 8.16 43 17 43 C17 40.36 17 37.72 17 35 C14.03 35 11.06 35 8 35 C8 32.03 8 29.06 8 26 C13.94 26 19.88 26 26 26 C26 37.55 26 49.1 26 61 C23.03 61 20.06 61 17 61 C17 58.03 17 55.06 17 52 C8.42 52 -0.16 52 -9 52 C-9 54.97 -9 57.94 -9 61 C-11.97 61 -14.94 61 -18 61 C-18 52.42 -18 43.84 -18 35 C-26.58 35 -35.16 35 -44 35 C-44 32.03 -44 29.06 -44 26 C-38.06 26 -32.12 26 -26 26 C-26 20.39 -26 14.78 -26 9 C-17.42 9 -8.84 9 0 9 C0 6.03 0 3.06 0 0 Z " fill="#02E1E4" transform="translate(149,207)"/>
<path d="M0 0 C5.94 0 11.88 0 18 0 C18 2.97 18 5.94 18 9 C15.03 9 12.06 9 9 9 C9 11.64 9 14.28 9 17 C3.06 17 -2.88 17 -9 17 C-9 19.97 -9 22.94 -9 26 C-6.03 26 -3.06 26 0 26 C0 31.61 0 37.22 0 43 C2.97 43 5.94 43 9 43 C9 45.97 9 48.94 9 52 C3.06 52 -2.88 52 -9 52 C-9 46.39 -9 40.78 -9 35 C-11.64 35 -14.28 35 -17 35 C-17 40.61 -17 46.22 -17 52 C-19.97 52 -22.94 52 -26 52 C-26 49.03 -26 46.06 -26 43 C-28.97 43 -31.94 43 -35 43 C-35 40.36 -35 37.72 -35 35 C-32.03 35 -29.06 35 -26 35 C-26 32.03 -26 29.06 -26 26 C-28.97 26 -31.94 26 -35 26 C-35 20.39 -35 14.78 -35 9 C-23.45 9 -11.9 9 0 9 C0 6.03 0 3.06 0 0 Z " fill="#591CA3" transform="translate(262,111)"/>
<path d="M0 0 C11.55 0 23.1 0 35 0 C35 2.97 35 5.94 35 9 C37.97 9 40.94 9 44 9 C44 11.64 44 14.28 44 17 C41.03 17 38.06 17 35 17 C35 19.97 35 22.94 35 26 C20.48 26 5.96 26 -9 26 C-9 28.97 -9 31.94 -9 35 C-11.64 35 -14.28 35 -17 35 C-17 29.06 -17 23.12 -17 17 C-11.39 17 -5.78 17 0 17 C0 11.39 0 5.78 0 0 Z " fill="#02E1E4" transform="translate(201,207)"/>
<path d="M0 0 C5.61 0 11.22 0 17 0 C17 2.97 17 5.94 17 9 C19.97 9 22.94 9 26 9 C26 11.64 26 14.28 26 17 C28.97 17 31.94 17 35 17 C35 28.55 35 40.1 35 52 C32.03 52 29.06 52 26 52 C26 46.39 26 40.78 26 35 C20.39 35 14.78 35 9 35 C9 37.97 9 40.94 9 44 C6.03 44 3.06 44 0 44 C0 35.09 0 26.18 0 17 C2.97 17 5.94 17 9 17 C9 14.36 9 11.72 9 9 C6.03 9 3.06 9 0 9 C0 6.03 0 3.06 0 0 Z " fill="#591CA3" transform="translate(175,137)"/>
<path d="M0 0 C14.19 0 28.38 0 43 0 C43 2.97 43 5.94 43 9 C45.97 9 48.94 9 52 9 C52 11.97 52 14.94 52 18 C49.03 18 46.06 18 43 18 C43 20.97 43 23.94 43 27 C31.45 27 19.9 27 8 27 C8 21.06 8 15.12 8 9 C5.36 9 2.72 9 0 9 C0 6.03 0 3.06 0 0 Z " fill="#02E1E4" transform="translate(27,93)"/>
<path d="M0 0 C8.58 0 17.16 0 26 0 C26 5.94 26 11.88 26 18 C28.97 18 31.94 18 35 18 C35 15.03 35 12.06 35 9 C37.97 9 40.94 9 44 9 C44 17.58 44 26.16 44 35 C41.03 35 38.06 35 35 35 C35 37.97 35 40.94 35 44 C32.03 44 29.06 44 26 44 C26 38.39 26 32.78 26 27 C23.03 27 20.06 27 17 27 C17 21.06 17 15.12 17 9 C11.39 9 5.78 9 0 9 C0 6.03 0 3.06 0 0 Z " fill="#02E1E4" transform="translate(236,32)"/>
<path d="M0 0 C2.64 0 5.28 0 8 0 C8 2.64 8 5.28 8 8 C10.97 8 13.94 8 17 8 C17 10.97 17 13.94 17 17 C19.97 17 22.94 17 26 17 C26 25.58 26 34.16 26 43 C23.03 43 20.06 43 17 43 C17 40.03 17 37.06 17 34 C14.03 34 11.06 34 8 34 C8 31.36 8 28.72 8 26 C5.36 26 2.72 26 0 26 C0 23.03 0 20.06 0 17 C-5.94 17 -11.88 17 -18 17 C-18 14.03 -18 11.06 -18 8 C-12.06 8 -6.12 8 0 8 C0 5.36 0 2.72 0 0 Z " fill="#02E1E4" transform="translate(149,277)"/>
<path d="M0 0 C2.97 0 5.94 0 9 0 C9 2.97 9 5.94 9 9 C11.97 9 14.94 9 18 9 C18 14.61 18 20.22 18 26 C12.06 26 6.12 26 0 26 C0 28.97 0 31.94 0 35 C2.97 35 5.94 35 9 35 C9 37.64 9 40.28 9 43 C0.42 43 -8.16 43 -17 43 C-17 37.39 -17 31.78 -17 26 C-14.03 26 -11.06 26 -8 26 C-8 23.03 -8 20.06 -8 17 C-5.36 17 -2.72 17 0 17 C0 11.39 0 5.78 0 0 Z " fill="#591CA3" transform="translate(157,207)"/>
<path d="M0 0 C2.97 0 5.94 0 9 0 C9 2.97 9 5.94 9 9 C11.64 9 14.28 9 17 9 C17 6.03 17 3.06 17 0 C22.94 0 28.88 0 35 0 C35 5.61 35 11.22 35 17 C29.06 17 23.12 17 17 17 C17 19.97 17 22.94 17 26 C14.36 26 11.72 26 9 26 C9 28.97 9 31.94 9 35 C6.03 35 3.06 35 0 35 C0 23.45 0 11.9 0 0 Z " fill="#591CA3" transform="translate(175,233)"/>
<path d="M0 0 C2.97 0 5.94 0 9 0 C9 2.97 9 5.94 9 9 C11.97 9 14.94 9 18 9 C18 14.61 18 20.22 18 26 C23.61 26 29.22 26 35 26 C35 34.58 35 43.16 35 52 C32.36 52 29.72 52 27 52 C27 46.39 27 40.78 27 35 C21.06 35 15.12 35 9 35 C9 29.06 9 23.12 9 17 C3.39 17 -2.22 17 -8 17 C-8 14.36 -8 11.72 -8 9 C-5.36 9 -2.72 9 0 9 C0 6.03 0 3.06 0 0 Z " fill="#02E1E4" transform="translate(314,207)"/>
<path d="M0 0 C2.97 0 5.94 0 9 0 C9 2.97 9 5.94 9 9 C11.97 9 14.94 9 18 9 C18 11.64 18 14.28 18 17 C23.61 17 29.22 17 35 17 C35 19.97 35 22.94 35 26 C32.03 26 29.06 26 26 26 C26 28.97 26 31.94 26 35 C20.39 35 14.78 35 9 35 C9 32.03 9 29.06 9 26 C6.03 26 3.06 26 0 26 C0 17.42 0 8.84 0 0 Z " fill="#591CA3" transform="translate(262,207)"/>
<path d="M0 0 C5.94 0 11.88 0 18 0 C18 2.97 18 5.94 18 9 C20.64 9 23.28 9 26 9 C26 11.64 26 14.28 26 17 C28.97 17 31.94 17 35 17 C35 25.91 35 34.82 35 44 C29.39 44 23.78 44 18 44 C18 41.03 18 38.06 18 35 C20.64 35 23.28 35 26 35 C26 32.03 26 29.06 26 26 C23.36 26 20.72 26 18 26 C18 23.03 18 20.06 18 17 C15.03 17 12.06 17 9 17 C9 14.36 9 11.72 9 9 C6.03 9 3.06 9 0 9 C0 6.03 0 3.06 0 0 Z " fill="#591CA3" transform="translate(262,172)"/>
<path d="M0 0 C8.58 0 17.16 0 26 0 C26 8.58 26 17.16 26 26 C17.42 26 8.84 26 0 26 C0 17.42 0 8.84 0 0 Z " fill="#03DEE3" transform="translate(44,303)"/>
<path d="M0 0 C8.58 0 17.16 0 26 0 C26 8.58 26 17.16 26 26 C17.42 26 8.84 26 0 26 C0 17.42 0 8.84 0 0 Z " fill="#591CA3" transform="translate(280,277)"/>
<path d="M0 0 C8.58 0 17.16 0 26 0 C26 8.58 26 17.16 26 26 C17.42 26 8.84 26 0 26 C0 17.42 0 8.84 0 0 Z " fill="#03DEE3" transform="translate(306,41)"/>
<path d="M0 0 C8.58 0 17.16 0 26 0 C26 8.58 26 17.16 26 26 C17.42 26 8.84 26 0 26 C0 17.42 0 8.84 0 0 Z " fill="#03DEE3" transform="translate(44,41)"/>
<path d="M0 0 C2.64 0 5.28 0 8 0 C8 2.97 8 5.94 8 9 C16.58 9 25.16 9 34 9 C34 11.97 34 14.94 34 18 C31.36 18 28.72 18 26 18 C26 20.97 26 23.94 26 27 C23.03 27 20.06 27 17 27 C17 24.03 17 21.06 17 18 C14.03 18 11.06 18 8 18 C8 20.97 8 23.94 8 27 C2.39 27 -3.22 27 -9 27 C-9 24.03 -9 21.06 -9 18 C-6.03 18 -3.06 18 0 18 C0 12.06 0 6.12 0 0 Z " fill="#02E1E4" transform="translate(123,311)"/>
<path d="M0 0 C5.61 0 11.22 0 17 0 C17 2.97 17 5.94 17 9 C19.97 9 22.94 9 26 9 C26 11.64 26 14.28 26 17 C28.97 17 31.94 17 35 17 C35 19.97 35 22.94 35 26 C23.45 26 11.9 26 0 26 C0 23.03 0 20.06 0 17 C2.97 17 5.94 17 9 17 C9 14.36 9 11.72 9 9 C6.03 9 3.06 9 0 9 C0 6.03 0 3.06 0 0 Z " fill="#02E1E4" transform="translate(79,111)"/>
<path d="M0 0 C2.97 0 5.94 0 9 0 C9 2.97 9 5.94 9 9 C11.97 9 14.94 9 18 9 C18 11.97 18 14.94 18 18 C20.97 18 23.94 18 27 18 C27 20.64 27 23.28 27 26 C21.06 26 15.12 26 9 26 C9 28.97 9 31.94 9 35 C6.03 35 3.06 35 0 35 C0 23.45 0 11.9 0 0 Z " fill="#02E1E4" transform="translate(157,128)"/>
<path d="M0 0 C5.61 0 11.22 0 17 0 C17 2.97 17 5.94 17 9 C19.97 9 22.94 9 26 9 C26 11.64 26 14.28 26 17 C20.06 17 14.12 17 8 17 C8 19.97 8 22.94 8 26 C5.36 26 2.72 26 0 26 C0 23.03 0 20.06 0 17 C-2.97 17 -5.94 17 -9 17 C-9 14.36 -9 11.72 -9 9 C-6.03 9 -3.06 9 0 9 C0 6.03 0 3.06 0 0 Z " fill="#591CA3" transform="translate(184,268)"/>
<path d="M0 0 C14.19 0 28.38 0 43 0 C43 5.61 43 11.22 43 17 C40.36 17 37.72 17 35 17 C35 14.03 35 11.06 35 8 C29.06 8 23.12 8 17 8 C17 10.97 17 13.94 17 17 C14.03 17 11.06 17 8 17 C8 14.03 8 11.06 8 8 C5.36 8 2.72 8 0 8 C0 5.36 0 2.72 0 0 Z " fill="#02E1E4" transform="translate(184,24)"/>
<path d="M0 0 C2.97 0 5.94 0 9 0 C9 5.61 9 11.22 9 17 C11.97 17 14.94 17 18 17 C18 19.97 18 22.94 18 26 C15.03 26 12.06 26 9 26 C9 31.61 9 37.22 9 43 C6.03 43 3.06 43 0 43 C0 28.81 0 14.62 0 0 Z " fill="#02E1E4" transform="translate(96,303)"/>
<path d="M0 0 C2.97 0 5.94 0 9 0 C9 5.94 9 11.88 9 18 C11.97 18 14.94 18 18 18 C18 20.64 18 23.28 18 26 C15.03 26 12.06 26 9 26 C9 28.97 9 31.94 9 35 C3.39 35 -2.22 35 -8 35 C-8 32.03 -8 29.06 -8 26 C-5.36 26 -2.72 26 0 26 C0 17.42 0 8.84 0 0 Z " fill="#591CA3" transform="translate(227,67)"/>
<path d="M0 0 C2.64 0 5.28 0 8 0 C8 5.61 8 11.22 8 17 C13.94 17 19.88 17 26 17 C26 19.97 26 22.94 26 26 C17.42 26 8.84 26 0 26 C0 23.03 0 20.06 0 17 C-2.97 17 -5.94 17 -9 17 C-9 14.36 -9 11.72 -9 9 C-6.03 9 -3.06 9 0 9 C0 6.03 0 3.06 0 0 Z " fill="#02E1E4" transform="translate(306,233)"/>
<path d="M0 0 C5.61 0 11.22 0 17 0 C17 5.94 17 11.88 17 18 C19.97 18 22.94 18 26 18 C26 23.61 26 29.22 26 35 C23.03 35 20.06 35 17 35 C17 32.03 17 29.06 17 26 C14.36 26 11.72 26 9 26 C9 20.39 9 14.78 9 9 C6.03 9 3.06 9 0 9 C0 6.03 0 3.06 0 0 Z " fill="#591CA3" transform="translate(236,41)"/>
<path d="M0 0 C2.97 0 5.94 0 9 0 C9 2.97 9 5.94 9 9 C11.64 9 14.28 9 17 9 C17 11.97 17 14.94 17 18 C14.36 18 11.72 18 9 18 C9 20.97 9 23.94 9 27 C6.03 27 3.06 27 0 27 C0 24.03 0 21.06 0 18 C-2.97 18 -5.94 18 -9 18 C-9 15.03 -9 12.06 -9 9 C-6.03 9 -3.06 9 0 9 C0 6.03 0 3.06 0 0 Z " fill="#02E1E4" transform="translate(271,189)"/>
<path d="M0 0 C2.64 0 5.28 0 8 0 C8 8.58 8 17.16 8 26 C5.36 26 2.72 26 0 26 C0 28.97 0 31.94 0 35 C-2.97 35 -5.94 35 -9 35 C-9 29.39 -9 23.78 -9 18 C-6.03 18 -3.06 18 0 18 C0 12.06 0 6.12 0 0 Z " fill="#02E1E4" transform="translate(184,198)"/>
<path d="M0 0 C2.97 0 5.94 0 9 0 C9 2.97 9 5.94 9 9 C11.97 9 14.94 9 18 9 C18 14.94 18 20.88 18 27 C15.03 27 12.06 27 9 27 C9 24.03 9 21.06 9 18 C6.03 18 3.06 18 0 18 C0 12.06 0 6.12 0 0 Z " fill="#591CA3" transform="translate(131,154)"/>
<path d="M0 0 C2.97 0 5.94 0 9 0 C9 2.97 9 5.94 9 9 C14.61 9 20.22 9 26 9 C26 11.97 26 14.94 26 18 C17.42 18 8.84 18 0 18 C0 12.06 0 6.12 0 0 Z " fill="#591CA3" transform="translate(288,311)"/>
<path d="M0 0 C2.97 0 5.94 0 9 0 C9 5.61 9 11.22 9 17 C11.97 17 14.94 17 18 17 C18 19.97 18 22.94 18 26 C12.06 26 6.12 26 0 26 C0 17.42 0 8.84 0 0 Z " fill="#591CA3" transform="translate(314,294)"/>
<path d="M0 0 C11.55 0 23.1 0 35 0 C35 2.97 35 5.94 35 9 C23.45 9 11.9 9 0 9 C0 6.03 0 3.06 0 0 Z " fill="#591CA3" transform="translate(53,172)"/>
<path d="M0 0 C2.97 0 5.94 0 9 0 C9 8.58 9 17.16 9 26 C6.03 26 3.06 26 0 26 C0 23.03 0 20.06 0 17 C-2.97 17 -5.94 17 -9 17 C-9 14.36 -9 11.72 -9 9 C-6.03 9 -3.06 9 0 9 C0 6.03 0 3.06 0 0 Z " fill="#591CA3" transform="translate(201,294)"/>
<path d="M0 0 C5.61 0 11.22 0 17 0 C17 2.97 17 5.94 17 9 C14.03 9 11.06 9 8 9 C8 11.97 8 14.94 8 18 C2.39 18 -3.22 18 -9 18 C-9 15.03 -9 12.06 -9 9 C-6.03 9 -3.06 9 0 9 C0 6.03 0 3.06 0 0 Z " fill="#591CA3" transform="translate(280,224)"/>
<path d="M0 0 C2.64 0 5.28 0 8 0 C8 5.94 8 11.88 8 18 C-0.58 18 -9.16 18 -18 18 C-18 15.03 -18 12.06 -18 9 C-12.06 9 -6.12 9 0 9 C0 6.03 0 3.06 0 0 Z " fill="#02E1E4" transform="translate(88,224)"/>
<path d="M0 0 C5.61 0 11.22 0 17 0 C17 5.94 17 11.88 17 18 C11.39 18 5.78 18 0 18 C0 12.06 0 6.12 0 0 Z " fill="#591CA3" transform="translate(219,163)"/>
<path d="M0 0 C2.97 0 5.94 0 9 0 C9 5.61 9 11.22 9 17 C6.03 17 3.06 17 0 17 C0 19.97 0 22.94 0 26 C-2.97 26 -5.94 26 -9 26 C-9 20.39 -9 14.78 -9 9 C-6.03 9 -3.06 9 0 9 C0 6.03 0 3.06 0 0 Z " fill="#591CA3" transform="translate(140,76)"/>
<path d="M0 0 C2.64 0 5.28 0 8 0 C8 2.97 8 5.94 8 9 C10.97 9 13.94 9 17 9 C17 11.97 17 14.94 17 18 C8.42 18 -0.16 18 -9 18 C-9 15.03 -9 12.06 -9 9 C-6.03 9 -3.06 9 0 9 C0 6.03 0 3.06 0 0 Z " fill="#591CA3" transform="translate(219,41)"/>
<path d="M0 0 C8.58 0 17.16 0 26 0 C26 2.97 26 5.94 26 9 C23.03 9 20.06 9 17 9 C17 11.64 17 14.28 17 17 C14.36 17 11.72 17 9 17 C9 14.36 9 11.72 9 9 C6.03 9 3.06 9 0 9 C0 6.03 0 3.06 0 0 Z " fill="#02E1E4" transform="translate(210,329)"/>
<path d="M0 0 C2.97 0 5.94 0 9 0 C9 2.97 9 5.94 9 9 C11.64 9 14.28 9 17 9 C17 14.61 17 20.22 17 26 C14.36 26 11.72 26 9 26 C9 23.03 9 20.06 9 17 C6.03 17 3.06 17 0 17 C0 11.39 0 5.78 0 0 Z " fill="#02E1E4" transform="translate(210,233)"/>
<path d="M0 0 C2.97 0 5.94 0 9 0 C9 2.97 9 5.94 9 9 C11.97 9 14.94 9 18 9 C18 11.97 18 14.94 18 18 C12.06 18 6.12 18 0 18 C0 12.06 0 6.12 0 0 Z " fill="#02E1E4" transform="translate(131,189)"/>
<path d="M0 0 C8.58 0 17.16 0 26 0 C26 2.97 26 5.94 26 9 C17.42 9 8.84 9 0 9 C0 6.03 0 3.06 0 0 Z " fill="#591CA3" transform="translate(210,320)"/>
<path d="M0 0 C2.97 0 5.94 0 9 0 C9 8.58 9 17.16 9 26 C6.03 26 3.06 26 0 26 C0 17.42 0 8.84 0 0 Z " fill="#02E1E4" transform="translate(253,277)"/>
<path d="M0 0 C5.61 0 11.22 0 17 0 C17 5.94 17 11.88 17 18 C14.03 18 11.06 18 8 18 C8 15.03 8 12.06 8 9 C5.36 9 2.72 9 0 9 C0 6.03 0 3.06 0 0 Z " fill="#591CA3" transform="translate(306,189)"/>
<path d="M0 0 C2.97 0 5.94 0 9 0 C9 5.61 9 11.22 9 17 C3.06 17 -2.88 17 -9 17 C-9 14.36 -9 11.72 -9 9 C-6.03 9 -3.06 9 0 9 C0 6.03 0 3.06 0 0 Z " fill="#02E1E4" transform="translate(166,329)"/>
<path d="M0 0 C2.97 0 5.94 0 9 0 C9 2.64 9 5.28 9 8 C11.64 8 14.28 8 17 8 C17 10.97 17 13.94 17 17 C11.39 17 5.78 17 0 17 C0 11.39 0 5.78 0 0 Z " fill="#02E1E4" transform="translate(53,216)"/>
<path d="M0 0 C2.97 0 5.94 0 9 0 C9 5.61 9 11.22 9 17 C3.06 17 -2.88 17 -9 17 C-9 14.36 -9 11.72 -9 9 C-6.03 9 -3.06 9 0 9 C0 6.03 0 3.06 0 0 Z " fill="#591CA3" transform="translate(262,76)"/>
<path d="M0 0 C5.61 0 11.22 0 17 0 C17 5.61 17 11.22 17 17 C14.03 17 11.06 17 8 17 C8 14.03 8 11.06 8 8 C5.36 8 2.72 8 0 8 C0 5.36 0 2.72 0 0 Z " fill="#591CA3" transform="translate(280,120)"/>
<path d="M0 0 C8.58 0 17.16 0 26 0 C26 2.64 26 5.28 26 8 C17.42 8 8.84 8 0 8 C0 5.36 0 2.72 0 0 Z " fill="#591CA3" transform="translate(70,242)"/>
<path d="M0 0 C5.94 0 11.88 0 18 0 C18 2.97 18 5.94 18 9 C12.06 9 6.12 9 0 9 C0 6.03 0 3.06 0 0 Z " fill="#591CA3" transform="translate(131,294)"/>
<path d="M0 0 C5.94 0 11.88 0 18 0 C18 2.97 18 5.94 18 9 C12.06 9 6.12 9 0 9 C0 6.03 0 3.06 0 0 Z " fill="#591CA3" transform="translate(70,224)"/>
<path d="M0 0 C2.97 0 5.94 0 9 0 C9 5.94 9 11.88 9 18 C6.03 18 3.06 18 0 18 C0 12.06 0 6.12 0 0 Z " fill="#591CA3" transform="translate(175,198)"/>
<path d="M0 0 C5.94 0 11.88 0 18 0 C18 2.97 18 5.94 18 9 C12.06 9 6.12 9 0 9 C0 6.03 0 3.06 0 0 Z " fill="#591CA3" transform="translate(323,172)"/>
<path d="M0 0 C5.94 0 11.88 0 18 0 C18 2.97 18 5.94 18 9 C12.06 9 6.12 9 0 9 C0 6.03 0 3.06 0 0 Z " fill="#591CA3" transform="translate(323,137)"/>
<path d="M0 0 C2.97 0 5.94 0 9 0 C9 5.94 9 11.88 9 18 C6.03 18 3.06 18 0 18 C0 12.06 0 6.12 0 0 Z " fill="#591CA3" transform="translate(44,102)"/>
<path d="M0 0 C2.97 0 5.94 0 9 0 C9 5.94 9 11.88 9 18 C6.03 18 3.06 18 0 18 C0 12.06 0 6.12 0 0 Z " fill="#02E1E4" transform="translate(297,93)"/>
<path d="M0 0 C2.97 0 5.94 0 9 0 C9 5.94 9 11.88 9 18 C6.03 18 3.06 18 0 18 C0 12.06 0 6.12 0 0 Z " fill="#591CA3" transform="translate(192,41)"/>
<path d="M0 0 C2.97 0 5.94 0 9 0 C9 5.94 9 11.88 9 18 C6.03 18 3.06 18 0 18 C0 12.06 0 6.12 0 0 Z " fill="#02E1E4" transform="translate(131,41)"/>
<path d="M0 0 C5.94 0 11.88 0 18 0 C18 2.97 18 5.94 18 9 C12.06 9 6.12 9 0 9 C0 6.03 0 3.06 0 0 Z " fill="#591CA3" transform="translate(201,32)"/>
<path d="M0 0 C5.61 0 11.22 0 17 0 C17 2.97 17 5.94 17 9 C11.39 9 5.78 9 0 9 C0 6.03 0 3.06 0 0 Z " fill="#02E1E4" transform="translate(236,250)"/>
<path d="M0 0 C5.61 0 11.22 0 17 0 C17 2.97 17 5.94 17 9 C11.39 9 5.78 9 0 9 C0 6.03 0 3.06 0 0 Z " fill="#591CA3" transform="translate(280,154)"/>
<path d="M0 0 C5.61 0 11.22 0 17 0 C17 2.97 17 5.94 17 9 C11.39 9 5.78 9 0 9 C0 6.03 0 3.06 0 0 Z " fill="#02E1E4" transform="translate(175,128)"/>
<path d="M0 0 C2.97 0 5.94 0 9 0 C9 5.61 9 11.22 9 17 C6.03 17 3.06 17 0 17 C0 11.39 0 5.78 0 0 Z " fill="#02E1E4" transform="translate(131,120)"/>
<path d="M0 0 C2.97 0 5.94 0 9 0 C9 5.61 9 11.22 9 17 C6.03 17 3.06 17 0 17 C0 11.39 0 5.78 0 0 Z " fill="#591CA3" transform="translate(157,76)"/>
<path d="M0 0 C2.97 0 5.94 0 9 0 C9 5.61 9 11.22 9 17 C6.03 17 3.06 17 0 17 C0 11.39 0 5.78 0 0 Z " fill="#02E1E4" transform="translate(166,24)"/>
<path d="M0 0 C2.97 0 5.94 0 9 0 C9 5.61 9 11.22 9 17 C6.03 17 3.06 17 0 17 C0 11.39 0 5.78 0 0 Z " fill="#02E1E4" transform="translate(114,24)"/>
<path d="M0 0 C5.94 0 11.88 0 18 0 C18 2.64 18 5.28 18 8 C12.06 8 6.12 8 0 8 C0 5.36 0 2.72 0 0 Z " fill="#02E1E4" transform="translate(131,303)"/>
<path d="M0 0 C5.94 0 11.88 0 18 0 C18 2.64 18 5.28 18 8 C12.06 8 6.12 8 0 8 C0 5.36 0 2.72 0 0 Z " fill="#02E1E4" transform="translate(70,216)"/>
<path d="M0 0 C2.64 0 5.28 0 8 0 C8 5.94 8 11.88 8 18 C5.36 18 2.72 18 0 18 C0 12.06 0 6.12 0 0 Z " fill="#02E1E4" transform="translate(341,102)"/>
<path d="M0 0 C5.61 0 11.22 0 17 0 C17 2.64 17 5.28 17 8 C11.39 8 5.78 8 0 8 C0 5.36 0 2.72 0 0 Z " fill="#02E1E4" transform="translate(280,216)"/>
<path d="M0 0 C2.64 0 5.28 0 8 0 C8 5.61 8 11.22 8 17 C5.36 17 2.72 17 0 17 C0 11.39 0 5.78 0 0 Z " fill="#02E1E4" transform="translate(27,146)"/>
<path d="M0 0 C5.61 0 11.22 0 17 0 C17 2.64 17 5.28 17 8 C11.39 8 5.78 8 0 8 C0 5.36 0 2.72 0 0 Z " fill="#591CA3" transform="translate(53,120)"/>
<path d="M0 0 C2.97 0 5.94 0 9 0 C9 2.97 9 5.94 9 9 C6.03 9 3.06 9 0 9 C0 6.03 0 3.06 0 0 Z " fill="#591CA3" transform="translate(323,329)"/>
<path d="M0 0 C2.97 0 5.94 0 9 0 C9 2.97 9 5.94 9 9 C6.03 9 3.06 9 0 9 C0 6.03 0 3.06 0 0 Z " fill="#02E1E4" transform="translate(192,329)"/>
<path d="M0 0 C2.97 0 5.94 0 9 0 C9 2.97 9 5.94 9 9 C6.03 9 3.06 9 0 9 C0 6.03 0 3.06 0 0 Z " fill="#591CA3" transform="translate(332,320)"/>
<path d="M0 0 C2.97 0 5.94 0 9 0 C9 2.97 9 5.94 9 9 C6.03 9 3.06 9 0 9 C0 6.03 0 3.06 0 0 Z " fill="#02E1E4" transform="translate(201,320)"/>
<path d="M0 0 C2.97 0 5.94 0 9 0 C9 2.97 9 5.94 9 9 C6.03 9 3.06 9 0 9 C0 6.03 0 3.06 0 0 Z " fill="#02E1E4" transform="translate(175,320)"/>
<path d="M0 0 C2.97 0 5.94 0 9 0 C9 2.97 9 5.94 9 9 C6.03 9 3.06 9 0 9 C0 6.03 0 3.06 0 0 Z " fill="#02E1E4" transform="translate(192,311)"/>
<path d="M0 0 C2.97 0 5.94 0 9 0 C9 2.97 9 5.94 9 9 C6.03 9 3.06 9 0 9 C0 6.03 0 3.06 0 0 Z " fill="#02E1E4" transform="translate(288,285)"/>
<path d="M0 0 C2.97 0 5.94 0 9 0 C9 2.97 9 5.94 9 9 C6.03 9 3.06 9 0 9 C0 6.03 0 3.06 0 0 Z " fill="#02E1E4" transform="translate(175,285)"/>
<path d="M0 0 C2.97 0 5.94 0 9 0 C9 2.97 9 5.94 9 9 C6.03 9 3.06 9 0 9 C0 6.03 0 3.06 0 0 Z " fill="#591CA3" transform="translate(166,285)"/>
<path d="M0 0 C2.97 0 5.94 0 9 0 C9 2.97 9 5.94 9 9 C6.03 9 3.06 9 0 9 C0 6.03 0 3.06 0 0 Z " fill="#02E1E4" transform="translate(175,268)"/>
<path d="M0 0 C2.97 0 5.94 0 9 0 C9 2.97 9 5.94 9 9 C6.03 9 3.06 9 0 9 C0 6.03 0 3.06 0 0 Z " fill="#591CA3" transform="translate(166,268)"/>
<path d="M0 0 C2.97 0 5.94 0 9 0 C9 2.97 9 5.94 9 9 C6.03 9 3.06 9 0 9 C0 6.03 0 3.06 0 0 Z " fill="#02E1E4" transform="translate(114,268)"/>
<path d="M0 0 C2.97 0 5.94 0 9 0 C9 2.97 9 5.94 9 9 C6.03 9 3.06 9 0 9 C0 6.03 0 3.06 0 0 Z " fill="#02E1E4" transform="translate(44,268)"/>
<path d="M0 0 C2.97 0 5.94 0 9 0 C9 2.97 9 5.94 9 9 C6.03 9 3.06 9 0 9 C0 6.03 0 3.06 0 0 Z " fill="#591CA3" transform="translate(262,259)"/>
<path d="M0 0 C2.97 0 5.94 0 9 0 C9 2.97 9 5.94 9 9 C6.03 9 3.06 9 0 9 C0 6.03 0 3.06 0 0 Z " fill="#02E1E4" transform="translate(253,259)"/>
<path d="M0 0 C2.97 0 5.94 0 9 0 C9 2.97 9 5.94 9 9 C6.03 9 3.06 9 0 9 C0 6.03 0 3.06 0 0 Z " fill="#02E1E4" transform="translate(227,259)"/>
<path d="M0 0 C2.97 0 5.94 0 9 0 C9 2.97 9 5.94 9 9 C6.03 9 3.06 9 0 9 C0 6.03 0 3.06 0 0 Z " fill="#591CA3" transform="translate(79,259)"/>
<path d="M0 0 C2.97 0 5.94 0 9 0 C9 2.97 9 5.94 9 9 C6.03 9 3.06 9 0 9 C0 6.03 0 3.06 0 0 Z " fill="#591CA3" transform="translate(271,250)"/>
<path d="M0 0 C2.97 0 5.94 0 9 0 C9 2.97 9 5.94 9 9 C6.03 9 3.06 9 0 9 C0 6.03 0 3.06 0 0 Z " fill="#591CA3" transform="translate(253,250)"/>
<path d="M0 0 C2.97 0 5.94 0 9 0 C9 2.97 9 5.94 9 9 C6.03 9 3.06 9 0 9 C0 6.03 0 3.06 0 0 Z " fill="#591CA3" transform="translate(210,250)"/>
<path d="M0 0 C2.97 0 5.94 0 9 0 C9 2.97 9 5.94 9 9 C6.03 9 3.06 9 0 9 C0 6.03 0 3.06 0 0 Z " fill="#02E1E4" transform="translate(114,250)"/>
<path d="M0 0 C2.97 0 5.94 0 9 0 C9 2.97 9 5.94 9 9 C6.03 9 3.06 9 0 9 C0 6.03 0 3.06 0 0 Z " fill="#591CA3" transform="translate(297,233)"/>
<path d="M0 0 C2.97 0 5.94 0 9 0 C9 2.97 9 5.94 9 9 C6.03 9 3.06 9 0 9 C0 6.03 0 3.06 0 0 Z " fill="#02E1E4" transform="translate(288,233)"/>
<path d="M0 0 C2.97 0 5.94 0 9 0 C9 2.97 9 5.94 9 9 C6.03 9 3.06 9 0 9 C0 6.03 0 3.06 0 0 Z " fill="#02E1E4" transform="translate(236,233)"/>
<path d="M0 0 C2.97 0 5.94 0 9 0 C9 2.97 9 5.94 9 9 C6.03 9 3.06 9 0 9 C0 6.03 0 3.06 0 0 Z " fill="#02E1E4" transform="translate(297,224)"/>
<path d="M0 0 C2.97 0 5.94 0 9 0 C9 2.97 9 5.94 9 9 C6.03 9 3.06 9 0 9 C0 6.03 0 3.06 0 0 Z " fill="#02E1E4" transform="translate(271,224)"/>
<path d="M0 0 C2.97 0 5.94 0 9 0 C9 2.97 9 5.94 9 9 C6.03 9 3.06 9 0 9 C0 6.03 0 3.06 0 0 Z " fill="#591CA3" transform="translate(210,224)"/>
<path d="M0 0 C2.97 0 5.94 0 9 0 C9 2.97 9 5.94 9 9 C6.03 9 3.06 9 0 9 C0 6.03 0 3.06 0 0 Z " fill="#591CA3" transform="translate(131,224)"/>
<path d="M0 0 C2.97 0 5.94 0 9 0 C9 2.97 9 5.94 9 9 C6.03 9 3.06 9 0 9 C0 6.03 0 3.06 0 0 Z " fill="#02E1E4" transform="translate(79,198)"/>
<path d="M0 0 C2.97 0 5.94 0 9 0 C9 2.97 9 5.94 9 9 C6.03 9 3.06 9 0 9 C0 6.03 0 3.06 0 0 Z " fill="#02E1E4" transform="translate(53,198)"/>
<path d="M0 0 C2.97 0 5.94 0 9 0 C9 2.97 9 5.94 9 9 C6.03 9 3.06 9 0 9 C0 6.03 0 3.06 0 0 Z " fill="#591CA3" transform="translate(262,189)"/>
<path d="M0 0 C2.97 0 5.94 0 9 0 C9 2.97 9 5.94 9 9 C6.03 9 3.06 9 0 9 C0 6.03 0 3.06 0 0 Z " fill="#02E1E4" transform="translate(253,189)"/>
<path d="M0 0 C2.97 0 5.94 0 9 0 C9 2.97 9 5.94 9 9 C6.03 9 3.06 9 0 9 C0 6.03 0 3.06 0 0 Z " fill="#591CA3" transform="translate(157,189)"/>
<path d="M0 0 C2.97 0 5.94 0 9 0 C9 2.97 9 5.94 9 9 C6.03 9 3.06 9 0 9 C0 6.03 0 3.06 0 0 Z " fill="#591CA3" transform="translate(140,189)"/>
<path d="M0 0 C2.97 0 5.94 0 9 0 C9 2.97 9 5.94 9 9 C6.03 9 3.06 9 0 9 C0 6.03 0 3.06 0 0 Z " fill="#591CA3" transform="translate(53,189)"/>
<path d="M0 0 C2.97 0 5.94 0 9 0 C9 2.97 9 5.94 9 9 C6.03 9 3.06 9 0 9 C0 6.03 0 3.06 0 0 Z " fill="#02E1E4" transform="translate(131,172)"/>
<path d="M0 0 C2.97 0 5.94 0 9 0 C9 2.97 9 5.94 9 9 C6.03 9 3.06 9 0 9 C0 6.03 0 3.06 0 0 Z " fill="#02E1E4" transform="translate(105,172)"/>
<path d="M0 0 C2.97 0 5.94 0 9 0 C9 2.97 9 5.94 9 9 C6.03 9 3.06 9 0 9 C0 6.03 0 3.06 0 0 Z " fill="#591CA3" transform="translate(96,172)"/>
<path d="M0 0 C2.97 0 5.94 0 9 0 C9 2.97 9 5.94 9 9 C6.03 9 3.06 9 0 9 C0 6.03 0 3.06 0 0 Z " fill="#591CA3" transform="translate(105,163)"/>
<path d="M0 0 C2.97 0 5.94 0 9 0 C9 2.97 9 5.94 9 9 C6.03 9 3.06 9 0 9 C0 6.03 0 3.06 0 0 Z " fill="#02E1E4" transform="translate(192,154)"/>
<path d="M0 0 C2.97 0 5.94 0 9 0 C9 2.97 9 5.94 9 9 C6.03 9 3.06 9 0 9 C0 6.03 0 3.06 0 0 Z " fill="#591CA3" transform="translate(157,154)"/>
<path d="M0 0 C2.97 0 5.94 0 9 0 C9 2.97 9 5.94 9 9 C6.03 9 3.06 9 0 9 C0 6.03 0 3.06 0 0 Z " fill="#02E1E4" transform="translate(227,137)"/>
<path d="M0 0 C2.97 0 5.94 0 9 0 C9 2.97 9 5.94 9 9 C6.03 9 3.06 9 0 9 C0 6.03 0 3.06 0 0 Z " fill="#591CA3" transform="translate(314,128)"/>
<path d="M0 0 C2.97 0 5.94 0 9 0 C9 2.97 9 5.94 9 9 C6.03 9 3.06 9 0 9 C0 6.03 0 3.06 0 0 Z " fill="#02E1E4" transform="translate(236,128)"/>
<path d="M0 0 C2.97 0 5.94 0 9 0 C9 2.97 9 5.94 9 9 C6.03 9 3.06 9 0 9 C0 6.03 0 3.06 0 0 Z " fill="#591CA3" transform="translate(192,128)"/>
<path d="M0 0 C2.97 0 5.94 0 9 0 C9 2.97 9 5.94 9 9 C6.03 9 3.06 9 0 9 C0 6.03 0 3.06 0 0 Z " fill="#591CA3" transform="translate(166,128)"/>
<path d="M0 0 C2.97 0 5.94 0 9 0 C9 2.97 9 5.94 9 9 C6.03 9 3.06 9 0 9 C0 6.03 0 3.06 0 0 Z " fill="#02E1E4" transform="translate(323,111)"/>
<path d="M0 0 C2.97 0 5.94 0 9 0 C9 2.97 9 5.94 9 9 C6.03 9 3.06 9 0 9 C0 6.03 0 3.06 0 0 Z " fill="#591CA3" transform="translate(297,111)"/>
<path d="M0 0 C2.97 0 5.94 0 9 0 C9 2.97 9 5.94 9 9 C6.03 9 3.06 9 0 9 C0 6.03 0 3.06 0 0 Z " fill="#02E1E4" transform="translate(175,111)"/>
<path d="M0 0 C2.97 0 5.94 0 9 0 C9 2.97 9 5.94 9 9 C6.03 9 3.06 9 0 9 C0 6.03 0 3.06 0 0 Z " fill="#591CA3" transform="translate(70,111)"/>
<path d="M0 0 C2.97 0 5.94 0 9 0 C9 2.97 9 5.94 9 9 C6.03 9 3.06 9 0 9 C0 6.03 0 3.06 0 0 Z " fill="#591CA3" transform="translate(140,102)"/>
<path d="M0 0 C2.97 0 5.94 0 9 0 C9 2.97 9 5.94 9 9 C6.03 9 3.06 9 0 9 C0 6.03 0 3.06 0 0 Z " fill="#02E1E4" transform="translate(131,102)"/>
<path d="M0 0 C2.97 0 5.94 0 9 0 C9 2.97 9 5.94 9 9 C6.03 9 3.06 9 0 9 C0 6.03 0 3.06 0 0 Z " fill="#02E1E4" transform="translate(114,102)"/>
<path d="M0 0 C2.97 0 5.94 0 9 0 C9 2.97 9 5.94 9 9 C6.03 9 3.06 9 0 9 C0 6.03 0 3.06 0 0 Z " fill="#02E1E4" transform="translate(70,102)"/>
<path d="M0 0 C2.97 0 5.94 0 9 0 C9 2.97 9 5.94 9 9 C6.03 9 3.06 9 0 9 C0 6.03 0 3.06 0 0 Z " fill="#02E1E4" transform="translate(332,93)"/>
<path d="M0 0 C2.97 0 5.94 0 9 0 C9 2.97 9 5.94 9 9 C6.03 9 3.06 9 0 9 C0 6.03 0 3.06 0 0 Z " fill="#02E1E4" transform="translate(314,93)"/>
<path d="M0 0 C2.97 0 5.94 0 9 0 C9 2.97 9 5.94 9 9 C6.03 9 3.06 9 0 9 C0 6.03 0 3.06 0 0 Z " fill="#02E1E4" transform="translate(140,93)"/>
<path d="M0 0 C2.97 0 5.94 0 9 0 C9 2.97 9 5.94 9 9 C6.03 9 3.06 9 0 9 C0 6.03 0 3.06 0 0 Z " fill="#591CA3" transform="translate(114,93)"/>
<path d="M0 0 C2.97 0 5.94 0 9 0 C9 2.97 9 5.94 9 9 C6.03 9 3.06 9 0 9 C0 6.03 0 3.06 0 0 Z " fill="#02E1E4" transform="translate(253,76)"/>
<path d="M0 0 C2.97 0 5.94 0 9 0 C9 2.97 9 5.94 9 9 C6.03 9 3.06 9 0 9 C0 6.03 0 3.06 0 0 Z " fill="#591CA3" transform="translate(210,76)"/>
<path d="M0 0 C2.97 0 5.94 0 9 0 C9 2.97 9 5.94 9 9 C6.03 9 3.06 9 0 9 C0 6.03 0 3.06 0 0 Z " fill="#591CA3" transform="translate(105,76)"/>
<path d="M0 0 C2.97 0 5.94 0 9 0 C9 2.97 9 5.94 9 9 C6.03 9 3.06 9 0 9 C0 6.03 0 3.06 0 0 Z " fill="#02E1E4" transform="translate(227,41)"/>
<path d="M0 0 C2.97 0 5.94 0 9 0 C9 2.97 9 5.94 9 9 C6.03 9 3.06 9 0 9 C0 6.03 0 3.06 0 0 Z " fill="#02E1E4" transform="translate(96,32)"/>
<path d="M0 0 C2.97 0 5.94 0 9 0 C9 2.64 9 5.28 9 8 C6.03 8 3.06 8 0 8 C0 5.36 0 2.72 0 0 Z " fill="#02E1E4" transform="translate(271,338)"/>
<path d="M0 0 C2.97 0 5.94 0 9 0 C9 2.64 9 5.28 9 8 C6.03 8 3.06 8 0 8 C0 5.36 0 2.72 0 0 Z " fill="#02E1E4" transform="translate(236,338)"/>
<path d="M0 0 C2.97 0 5.94 0 9 0 C9 2.64 9 5.28 9 8 C6.03 8 3.06 8 0 8 C0 5.36 0 2.72 0 0 Z " fill="#02E1E4" transform="translate(201,338)"/>
<path d="M0 0 C2.97 0 5.94 0 9 0 C9 2.64 9 5.28 9 8 C6.03 8 3.06 8 0 8 C0 5.36 0 2.72 0 0 Z " fill="#591CA3" transform="translate(227,303)"/>
<path d="M0 0 C2.64 0 5.28 0 8 0 C8 2.97 8 5.94 8 9 C5.36 9 2.72 9 0 9 C0 6.03 0 3.06 0 0 Z " fill="#02E1E4" transform="translate(123,294)"/>
<path d="M0 0 C2.64 0 5.28 0 8 0 C8 2.97 8 5.94 8 9 C5.36 9 2.72 9 0 9 C0 6.03 0 3.06 0 0 Z " fill="#591CA3" transform="translate(184,285)"/>
<path d="M0 0 C2.97 0 5.94 0 9 0 C9 2.64 9 5.28 9 8 C6.03 8 3.06 8 0 8 C0 5.36 0 2.72 0 0 Z " fill="#591CA3" transform="translate(175,277)"/>
<path d="M0 0 C2.97 0 5.94 0 9 0 C9 2.64 9 5.28 9 8 C6.03 8 3.06 8 0 8 C0 5.36 0 2.72 0 0 Z " fill="#02E1E4" transform="translate(166,277)"/>
<path d="M0 0 C2.97 0 5.94 0 9 0 C9 2.64 9 5.28 9 8 C6.03 8 3.06 8 0 8 C0 5.36 0 2.72 0 0 Z " fill="#591CA3" transform="translate(157,277)"/>
<path d="M0 0 C2.97 0 5.94 0 9 0 C9 2.64 9 5.28 9 8 C6.03 8 3.06 8 0 8 C0 5.36 0 2.72 0 0 Z " fill="#591CA3" transform="translate(288,242)"/>
<path d="M0 0 C2.64 0 5.28 0 8 0 C8 2.97 8 5.94 8 9 C5.36 9 2.72 9 0 9 C0 6.03 0 3.06 0 0 Z " fill="#02E1E4" transform="translate(184,233)"/>
<path d="M0 0 C2.64 0 5.28 0 8 0 C8 2.97 8 5.94 8 9 C5.36 9 2.72 9 0 9 C0 6.03 0 3.06 0 0 Z " fill="#591CA3" transform="translate(184,224)"/>
<path d="M0 0 C2.97 0 5.94 0 9 0 C9 2.64 9 5.28 9 8 C6.03 8 3.06 8 0 8 C0 5.36 0 2.72 0 0 Z " fill="#591CA3" transform="translate(297,216)"/>
<path d="M0 0 C2.97 0 5.94 0 9 0 C9 2.64 9 5.28 9 8 C6.03 8 3.06 8 0 8 C0 5.36 0 2.72 0 0 Z " fill="#02E1E4" transform="translate(236,216)"/>
<path d="M0 0 C2.97 0 5.94 0 9 0 C9 2.64 9 5.28 9 8 C6.03 8 3.06 8 0 8 C0 5.36 0 2.72 0 0 Z " fill="#591CA3" transform="translate(227,216)"/>
<path d="M0 0 C2.97 0 5.94 0 9 0 C9 2.64 9 5.28 9 8 C6.03 8 3.06 8 0 8 C0 5.36 0 2.72 0 0 Z " fill="#02E1E4" transform="translate(35,216)"/>
<path d="M0 0 C2.64 0 5.28 0 8 0 C8 2.97 8 5.94 8 9 C5.36 9 2.72 9 0 9 C0 6.03 0 3.06 0 0 Z " fill="#591CA3" transform="translate(306,207)"/>
<path d="M0 0 C2.64 0 5.28 0 8 0 C8 2.97 8 5.94 8 9 C5.36 9 2.72 9 0 9 C0 6.03 0 3.06 0 0 Z " fill="#02E1E4" transform="translate(27,207)"/>
<path d="M0 0 C2.64 0 5.28 0 8 0 C8 2.97 8 5.94 8 9 C5.36 9 2.72 9 0 9 C0 6.03 0 3.06 0 0 Z " fill="#591CA3" transform="translate(149,198)"/>
<path d="M0 0 C2.97 0 5.94 0 9 0 C9 2.64 9 5.28 9 8 C6.03 8 3.06 8 0 8 C0 5.36 0 2.72 0 0 Z " fill="#591CA3" transform="translate(297,181)"/>
<path d="M0 0 C2.97 0 5.94 0 9 0 C9 2.64 9 5.28 9 8 C6.03 8 3.06 8 0 8 C0 5.36 0 2.72 0 0 Z " fill="#02E1E4" transform="translate(262,181)"/>
<path d="M0 0 C2.97 0 5.94 0 9 0 C9 2.64 9 5.28 9 8 C6.03 8 3.06 8 0 8 C0 5.36 0 2.72 0 0 Z " fill="#591CA3" transform="translate(253,181)"/>
<path d="M0 0 C2.97 0 5.94 0 9 0 C9 2.64 9 5.28 9 8 C6.03 8 3.06 8 0 8 C0 5.36 0 2.72 0 0 Z " fill="#591CA3" transform="translate(166,181)"/>
<path d="M0 0 C2.64 0 5.28 0 8 0 C8 2.97 8 5.94 8 9 C5.36 9 2.72 9 0 9 C0 6.03 0 3.06 0 0 Z " fill="#591CA3" transform="translate(245,172)"/>
<path d="M0 0 C2.64 0 5.28 0 8 0 C8 2.97 8 5.94 8 9 C5.36 9 2.72 9 0 9 C0 6.03 0 3.06 0 0 Z " fill="#591CA3" transform="translate(306,154)"/>
<path d="M0 0 C2.97 0 5.94 0 9 0 C9 2.64 9 5.28 9 8 C6.03 8 3.06 8 0 8 C0 5.36 0 2.72 0 0 Z " fill="#591CA3" transform="translate(314,146)"/>
<path d="M0 0 C2.97 0 5.94 0 9 0 C9 2.64 9 5.28 9 8 C6.03 8 3.06 8 0 8 C0 5.36 0 2.72 0 0 Z " fill="#591CA3" transform="translate(297,146)"/>
<path d="M0 0 C2.97 0 5.94 0 9 0 C9 2.64 9 5.28 9 8 C6.03 8 3.06 8 0 8 C0 5.36 0 2.72 0 0 Z " fill="#02E1E4" transform="translate(175,146)"/>
<path d="M0 0 C2.97 0 5.94 0 9 0 C9 2.64 9 5.28 9 8 C6.03 8 3.06 8 0 8 C0 5.36 0 2.72 0 0 Z " fill="#591CA3" transform="translate(166,146)"/>
<path d="M0 0 C2.97 0 5.94 0 9 0 C9 2.64 9 5.28 9 8 C6.03 8 3.06 8 0 8 C0 5.36 0 2.72 0 0 Z " fill="#02E1E4" transform="translate(79,146)"/>
<path d="M0 0 C2.64 0 5.28 0 8 0 C8 2.97 8 5.94 8 9 C5.36 9 2.72 9 0 9 C0 6.03 0 3.06 0 0 Z " fill="#591CA3" transform="translate(280,137)"/>
<path d="M0 0 C2.64 0 5.28 0 8 0 C8 2.97 8 5.94 8 9 C5.36 9 2.72 9 0 9 C0 6.03 0 3.06 0 0 Z " fill="#591CA3" transform="translate(219,137)"/>
<path d="M0 0 C2.97 0 5.94 0 9 0 C9 2.64 9 5.28 9 8 C6.03 8 3.06 8 0 8 C0 5.36 0 2.72 0 0 Z " fill="#591CA3" transform="translate(323,120)"/>
<path d="M0 0 C2.97 0 5.94 0 9 0 C9 2.64 9 5.28 9 8 C6.03 8 3.06 8 0 8 C0 5.36 0 2.72 0 0 Z " fill="#02E1E4" transform="translate(166,120)"/>
<path d="M0 0 C2.97 0 5.94 0 9 0 C9 2.64 9 5.28 9 8 C6.03 8 3.06 8 0 8 C0 5.36 0 2.72 0 0 Z " fill="#02E1E4" transform="translate(114,120)"/>
<path d="M0 0 C2.97 0 5.94 0 9 0 C9 2.64 9 5.28 9 8 C6.03 8 3.06 8 0 8 C0 5.36 0 2.72 0 0 Z " fill="#02E1E4" transform="translate(70,120)"/>
<path d="M0 0 C2.64 0 5.28 0 8 0 C8 2.97 8 5.94 8 9 C5.36 9 2.72 9 0 9 C0 6.03 0 3.06 0 0 Z " fill="#591CA3" transform="translate(245,102)"/>
<path d="M0 0 C2.64 0 5.28 0 8 0 C8 2.97 8 5.94 8 9 C5.36 9 2.72 9 0 9 C0 6.03 0 3.06 0 0 Z " fill="#591CA3" transform="translate(62,102)"/>
<path d="M0 0 C2.64 0 5.28 0 8 0 C8 2.97 8 5.94 8 9 C5.36 9 2.72 9 0 9 C0 6.03 0 3.06 0 0 Z " fill="#591CA3" transform="translate(149,93)"/>
<path d="M0 0 C2.64 0 5.28 0 8 0 C8 2.97 8 5.94 8 9 C5.36 9 2.72 9 0 9 C0 6.03 0 3.06 0 0 Z " fill="#591CA3" transform="translate(245,76)"/>
<path d="M0 0 C2.64 0 5.28 0 8 0 C8 2.97 8 5.94 8 9 C5.36 9 2.72 9 0 9 C0 6.03 0 3.06 0 0 Z " fill="#591CA3" transform="translate(123,76)"/>
<path d="M0 0 C2.97 0 5.94 0 9 0 C9 2.64 9 5.28 9 8 C6.03 8 3.06 8 0 8 C0 5.36 0 2.72 0 0 Z " fill="#02E1E4" transform="translate(271,24)"/>
<path d="M0 0 C2.97 0 5.94 0 9 0 C9 2.64 9 5.28 9 8 C6.03 8 3.06 8 0 8 C0 5.36 0 2.72 0 0 Z " fill="#02E1E4" transform="translate(131,24)"/>
<path d="M0 0 C2.64 0 5.28 0 8 0 C8 2.64 8 5.28 8 8 C5.36 8 2.72 8 0 8 C0 5.36 0 2.72 0 0 Z " fill="#02E1E4" transform="translate(184,338)"/>
<path d="M0 0 C2.64 0 5.28 0 8 0 C8 2.64 8 5.28 8 8 C5.36 8 2.72 8 0 8 C0 5.36 0 2.72 0 0 Z " fill="#02E1E4" transform="translate(184,277)"/>
<path d="M0 0 C2.64 0 5.28 0 8 0 C8 2.64 8 5.28 8 8 C5.36 8 2.72 8 0 8 C0 5.36 0 2.72 0 0 Z " fill="#02E1E4" transform="translate(123,277)"/>
<path d="M0 0 C2.64 0 5.28 0 8 0 C8 2.64 8 5.28 8 8 C5.36 8 2.72 8 0 8 C0 5.36 0 2.72 0 0 Z " fill="#591CA3" transform="translate(306,120)"/>
</svg>
